Coordinates
version=1
nRows=19
nColumns=24
inDegrees=yes

Units are S.I. units (second, meters, Newtons, ...)
Angles are in degrees.

endheader
time	pelvis_tilt	pelvis_list	pelvis_rotation	pelvis_tx	pelvis_ty	pelvis_tz	hip_flexion_r	hip_adduction_r	hip_rotation_r	knee_angle_r	ankle_angle_r	subtalar_angle_r	mtp_angle_r	hip_flexion_l	hip_adduction_l	hip_rotation_l	knee_angle_l	ankle_angle_l	subtalar_angle_l	mtp_angle_l	lumbar_extension	lumbar_bending	lumbar_rotation
      4.77500000	     13.99875552	      0.55065564	     -4.74964692	      0.47058817	      0.94903507	      0.03320972	    -21.47766699	     -6.58509999	     -3.34173212	    -30.65890173	     20.59248198	     23.67734985	     40.27846340	     -1.14754431	      1.16749195	    -11.07526198	     -8.03610487	      1.61891872	     13.54388344	     29.10238926	    -25.44097797	     -0.83937509	      5.03552050
      4.78000000	     13.99418677	      0.61388459	     -4.76171730	      0.47522248	      0.94968745	      0.03216008	    -20.89915186	     -6.90372748	     -3.45394523	    -32.10717530	     19.47454632	     24.32778879	     40.39826626	     -1.37288561	      1.29909328	    -11.25392511	     -8.19718412	      1.79470327	     13.85415639	     29.03700012	    -25.41913848	     -0.97307022	      4.97526340
      4.78500000	     13.96324068	      0.69601459	     -4.76838174	      0.47981296	      0.95029677	      0.03112636	    -20.26051177	     -7.23661716	     -3.55714956	    -33.58018285	     18.34054678	     24.89770020	     40.68407752	     -1.56865065	      1.44500855	    -11.43474921	     -8.35653714	      2.00601988	     14.20761707	     28.89865895	    -25.36862092	     -1.12284595	      4.91107003
      4.79000000	     13.93908563	      0.72699273	     -4.78719791	      0.48438831	      0.95096626	      0.03025980	    -19.62936043	     -7.48050564	     -3.56590077	    -34.95194261	     16.81450735	     24.85549201	     45.80581219	     -1.78245346	      1.51990102	    -11.68729730	     -8.54586745	      2.53621421	     14.79107245	     25.63114409	    -25.32938147	     -1.23874922	      4.86410782
      4.79500000	     13.93939589	      0.79965766	     -4.77405353	      0.48899298	      0.95162496	      0.02933670	    -19.01794051	     -7.78168909	     -3.66092438	    -36.36747192	     15.67454622	     25.22764459	     45.84220123	     -2.05157704	      1.64826793	    -11.89543950	     -8.63529988	      2.79143737	     15.27028349	     25.46826216	    -25.30864726	     -1.38426223	      4.77391757
      4.80000000	     13.93016448	      0.82693338	     -4.81094590	      0.49350517	      0.95230987	      0.02865408	    -18.37160336	     -7.99935241	     -3.59637374	    -37.72863794	     14.40855335	     25.06414242	     48.30189506	     -2.30009919	      1.70424502	    -12.22123696	     -8.80300437	      3.44519721	     16.07661133	     20.56857938	    -25.28738205	     -1.51812015	      4.73338900
      4.80500000	     13.92128859	      0.86532410	     -4.79514483	      0.49802762	      0.95295132	      0.02787369	    -17.73039260	     -8.23079333	     -3.62967986	    -39.08652387	     13.37038818	     25.16736507	     48.17337673	     -2.56746350	      1.78636520	    -12.43320962	     -8.88566677	      3.76865352	     16.52937067	     20.34055144	    -25.26317509	     -1.63756149	      4.63451241
      4.81000000	     13.92963452	      0.91769594	     -4.82561657	      0.50253657	      0.95361197	      0.02720043	    -17.08627626	     -8.47814967	     -3.61388287	    -40.42567003	     12.43238362	     25.04294868	     48.11394251	     -2.91012899	      1.89565396	    -12.64912022	     -8.83711886	      3.97142568	     16.95128443	     20.16503782	    -25.25529668	     -1.79254427	      4.59228594
      4.81500000	     13.96456959	      0.92542873	     -4.84348040	      0.50703728	      0.95432074	      0.02666339	    -16.48942267	     -8.64422852	     -3.56963685	    -41.68419071	     11.58963645	     24.71135526	     47.67806673	     -3.25785072	      1.93304072	    -12.93807451	     -8.90796372	      4.73054185	     17.78056944	     14.28802641	    -25.27802955	     -1.91185959	      4.52232477
      4.82000000	     13.97220055	      0.96664772	     -4.86555112	      0.51148248	      0.95495318	      0.02608072	    -15.83427664	     -8.85391312	     -3.56796696	    -42.94876908	     10.89108315	     24.26330333	     47.60195763	     -3.61983273	      2.03479639	    -13.09605266	     -8.80993864	      4.92370090	     18.09174088	     14.26845316	    -25.27377923	     -2.05790988	      4.45585369
      4.82500000	     13.98834528	      0.97376449	     -4.89160396	      0.51592841	      0.95559848	      0.02558712	    -15.19821581	     -9.00883271	     -3.54846338	    -44.13966440	     10.29699680	     23.63654902	     47.42734054	     -3.99992053	      2.09793413	    -13.27174909	     -8.70778365	      5.17254338	     18.41161832	     14.17394304	    -25.27722088	     -2.17711933	      4.38752870
      4.83000000	     14.02802042	      0.99890538	     -4.91121181	      0.52037108	      0.95625780	      0.02508015	    -14.58943253	     -9.18743281	     -3.59020766	    -45.28313244	      9.86689125	     22.87826800	     47.21412709	     -4.44080706	      2.19553071	    -13.37902905	     -8.51464312	      5.32029109	     18.66411462	     14.07093450	    -25.30558971	     -2.30939485	      4.32643466
      4.83500000	     14.07011334	      1.00105360	     -4.94700928	      0.52475939	      0.95690027	      0.02465993	    -13.97189131	     -9.33361009	     -3.59584152	    -46.40513039	      9.70874659	     22.23175117	     44.30289868	     -4.87310589	      2.26173519	    -13.53234489	     -8.36722579	      5.69574221	     19.05337048	     11.93254108	    -25.34154836	     -2.42821800	      4.26463979
      4.84000000	     14.11257029	      1.00339655	     -4.95612802	      0.52916495	      0.95753933	      0.02421468	    -13.37645195	     -9.46854211	     -3.68171271	    -47.41954880	      9.51926484	     21.20632966	     44.18416758	     -5.34214268	      2.34369991	    -13.56839405	     -8.11402017	      5.82172765	     19.18297157	     11.85941483	    -25.37582717	     -2.53601257	      4.17935384
      4.84500000	     14.15876037	      0.98386909	     -4.97370082	      0.53354195	      0.95817442	      0.02377844	    -12.78153673	     -9.57722235	     -3.76146005	    -48.37365563	      9.41519514	     20.11346845	     43.96424118	     -5.82805383	      2.40823449	    -13.59202071	     -7.83625317	      5.96133964	     19.30571412	     11.76532671	    -25.41827693	     -2.61734294	      4.11454919
      4.85000000	     14.21010148	      0.95374888	     -4.98901145	      0.53788866	      0.95880552	      0.02337573	    -12.19571112	     -9.66906624	     -3.86961571	    -49.25742734	      9.40627269	     18.96294020	     43.65588661	     -6.32957288	      2.46478291	    -13.59231844	     -7.53275543	      6.07742574	     19.38344757	     11.65571506	    -25.46998789	     -2.68959505	      4.04497214
      4.85500000	     14.25374791	      0.92312644	     -5.02202998	      0.54220538	      0.95939095	      0.02301833	    -11.58598016	     -9.76414126	     -3.97053643	    -50.12985229	      9.67011913	     18.05254905	     40.20942739	     -6.81171188	      2.51573742	    -13.65789548	     -7.26378772	      6.33919752	     19.62726347	     10.24574833	    -25.51462081	     -2.76475040	      3.99821513
      4.86000000	     14.31202155	      0.87424108	     -5.00580467	      0.54651771	      0.96000424	      0.02255290	    -11.02922089	     -9.82722317	     -4.15054874	    -50.85824640	      9.83446719	     16.88077439	     40.06930051	     -7.34717354	      2.56643830	    -13.53577675	     -6.89098091	      6.41305376	     19.52169451	     10.17110336	    -25.58025094	     -2.79359550	      3.90621593
      4.86500000	     14.36342400	      0.80474298	     -5.00137886	      0.55078259	      0.96059630	      0.02213209	    -10.45782638	     -9.86258993	     -4.32421983	    -51.52450472	     10.01751627	     15.73694651	     39.83204504	     -7.87217829	      2.59156485	    -13.44121304	     -6.52675269	      6.49663881	     19.46587861	     10.09285328	    -25.64450924	     -2.80398487	      3.84646963
